<svg xmlns="http://www.w3.org/2000/svg" viewBox="0 0 998 762" width="998" height="762" font-family="ui-sans-serif,-apple-system,Segoe UI,Roboto,Helvetica,Arial,sans-serif">
<defs><marker id="a" viewBox="0 0 10 10" refX="9" refY="5" markerWidth="7" markerHeight="7" orient="auto-start-reverse"><path d="M0,1 L9,5 L0,9 z" fill="#5b6b7c"/></marker></defs>
<text x="40" y="72" font-size="15" font-weight="700" fill="#008300">record — never edited</text>
<text x="372" y="72" font-size="15" font-weight="700" fill="#2a78d6">catalog — mutable</text>
<text x="700" y="72" font-size="15" font-weight="700" fill="#c98500">diary — what happened</text>
<path d="M618,133 C670,133 670,351 618,351" fill="none" stroke="#5b6b7c" stroke-width="1.6" marker-end="url(#a)"/>
<path d="M372,329 C326,329 336,133 290,133" fill="none" stroke="#5b6b7c" stroke-width="1.6" marker-end="url(#a)"/>
<path d="M372,329 C326,329 336,341 290,341" fill="none" stroke="#5b6b7c" stroke-width="1.6" marker-end="url(#a)"/>
<path d="M372,329 C326,329 336,571 290,571" fill="none" stroke="#5b6b7c" stroke-width="1.6" marker-end="url(#a)"/>
<path d="M618,329 C664,329 654,155 700,155" fill="none" stroke="#5b6b7c" stroke-width="1.6" stroke-dasharray="5 4" marker-end="url(#a)"/>
<path d="M958,361 C1010,361 1010,243 958,243" fill="none" stroke="#5b6b7c" stroke-width="1.6" stroke-dasharray="5 4" marker-end="url(#a)"/>
<path d="M958,361 C1010,361 1010,615 958,615" fill="none" stroke="#5b6b7c" stroke-width="1.6" stroke-dasharray="5 4" marker-end="url(#a)"/>
<rect x="40" y="92" width="250" height="140" rx="7" fill="#ffffff" stroke="#008300" stroke-width="1.8"/>
<path d="M40,122 L40,99 A7,7 0 0 1 47,92 L283,92 A7,7 0 0 1 290,99 L290,122 Z" fill="#e8f5e8"/>
<text x="50" y="113" font-size="15" font-weight="700" fill="#008300" font-family="ui-monospace,SFMono-Regular,Menlo,Consolas,monospace">price_months</text>
<text x="50" y="137" font-size="13" fill="#1f2933" font-family="ui-monospace,SFMono-Regular,Menlo,Consolas,monospace">card_id</text>
<text x="280" y="137" font-size="11" text-anchor="end" font-weight="700" fill="#008300" font-family="ui-monospace,SFMono-Regular,Menlo,Consolas,monospace">FK PK</text>
<line x1="40" y1="144" x2="290" y2="144" stroke="#e4e8ee"/>
<text x="50" y="159" font-size="13" fill="#1f2933" font-family="ui-monospace,SFMono-Regular,Menlo,Consolas,monospace">tier</text>
<text x="280" y="159" font-size="11" text-anchor="end" font-weight="700" fill="#008300" font-family="ui-monospace,SFMono-Regular,Menlo,Consolas,monospace">PK</text>
<line x1="40" y1="166" x2="290" y2="166" stroke="#e4e8ee"/>
<text x="50" y="181" font-size="13" fill="#1f2933" font-family="ui-monospace,SFMono-Regular,Menlo,Consolas,monospace">month</text>
<text x="280" y="181" font-size="11" text-anchor="end" font-weight="700" fill="#008300" font-family="ui-monospace,SFMono-Regular,Menlo,Consolas,monospace">PK</text>
<line x1="40" y1="188" x2="290" y2="188" stroke="#e4e8ee"/>
<text x="50" y="203" font-size="13" fill="#1f2933" font-family="ui-monospace,SFMono-Regular,Menlo,Consolas,monospace">observed_at</text>
<text x="280" y="203" font-size="11" text-anchor="end" font-weight="700" fill="#008300" font-family="ui-monospace,SFMono-Regular,Menlo,Consolas,monospace">PK</text>
<line x1="40" y1="210" x2="290" y2="210" stroke="#e4e8ee"/>
<text x="50" y="225" font-size="13" fill="#1f2933" font-family="ui-monospace,SFMono-Regular,Menlo,Consolas,monospace">price_cents</text>
<rect x="40" y="300" width="250" height="140" rx="7" fill="#ffffff" stroke="#008300" stroke-width="1.8"/>
<path d="M40,330 L40,307 A7,7 0 0 1 47,300 L283,300 A7,7 0 0 1 290,307 L290,330 Z" fill="#e8f5e8"/>
<text x="50" y="321" font-size="15" font-weight="700" fill="#008300" font-family="ui-monospace,SFMono-Regular,Menlo,Consolas,monospace">populations</text>
<text x="50" y="345" font-size="13" fill="#1f2933" font-family="ui-monospace,SFMono-Regular,Menlo,Consolas,monospace">card_id</text>
<text x="280" y="345" font-size="11" text-anchor="end" font-weight="700" fill="#008300" font-family="ui-monospace,SFMono-Regular,Menlo,Consolas,monospace">FK PK</text>
<line x1="40" y1="352" x2="290" y2="352" stroke="#e4e8ee"/>
<text x="50" y="367" font-size="13" fill="#1f2933" font-family="ui-monospace,SFMono-Regular,Menlo,Consolas,monospace">grader</text>
<text x="280" y="367" font-size="11" text-anchor="end" font-weight="700" fill="#008300" font-family="ui-monospace,SFMono-Regular,Menlo,Consolas,monospace">PK</text>
<line x1="40" y1="374" x2="290" y2="374" stroke="#e4e8ee"/>
<text x="50" y="389" font-size="13" fill="#1f2933" font-family="ui-monospace,SFMono-Regular,Menlo,Consolas,monospace">grade</text>
<text x="280" y="389" font-size="11" text-anchor="end" font-weight="700" fill="#008300" font-family="ui-monospace,SFMono-Regular,Menlo,Consolas,monospace">PK</text>
<line x1="40" y1="396" x2="290" y2="396" stroke="#e4e8ee"/>
<text x="50" y="411" font-size="13" fill="#1f2933" font-family="ui-monospace,SFMono-Regular,Menlo,Consolas,monospace">observed_at</text>
<text x="280" y="411" font-size="11" text-anchor="end" font-weight="700" fill="#008300" font-family="ui-monospace,SFMono-Regular,Menlo,Consolas,monospace">PK</text>
<line x1="40" y1="418" x2="290" y2="418" stroke="#e4e8ee"/>
<text x="50" y="433" font-size="13" fill="#1f2933" font-family="ui-monospace,SFMono-Regular,Menlo,Consolas,monospace">population</text>
<rect x="40" y="508" width="250" height="184" rx="7" fill="#ffffff" stroke="#008300" stroke-width="1.8"/>
<path d="M40,538 L40,515 A7,7 0 0 1 47,508 L283,508 A7,7 0 0 1 290,515 L290,538 Z" fill="#e8f5e8"/>
<text x="50" y="529" font-size="15" font-weight="700" fill="#008300" font-family="ui-monospace,SFMono-Regular,Menlo,Consolas,monospace">sales</text>
<text x="50" y="553" font-size="13" fill="#1f2933" font-family="ui-monospace,SFMono-Regular,Menlo,Consolas,monospace">id</text>
<text x="280" y="553" font-size="11" text-anchor="end" font-weight="700" fill="#008300" font-family="ui-monospace,SFMono-Regular,Menlo,Consolas,monospace">PK</text>
<line x1="40" y1="560" x2="290" y2="560" stroke="#e4e8ee"/>
<text x="50" y="575" font-size="13" fill="#1f2933" font-family="ui-monospace,SFMono-Regular,Menlo,Consolas,monospace">card_id</text>
<text x="280" y="575" font-size="11" text-anchor="end" font-weight="700" fill="#008300" font-family="ui-monospace,SFMono-Regular,Menlo,Consolas,monospace">FK</text>
<line x1="40" y1="582" x2="290" y2="582" stroke="#e4e8ee"/>
<text x="50" y="597" font-size="13" fill="#1f2933" font-family="ui-monospace,SFMono-Regular,Menlo,Consolas,monospace">source_id</text>
<line x1="40" y1="604" x2="290" y2="604" stroke="#e4e8ee"/>
<text x="50" y="619" font-size="13" fill="#1f2933" font-family="ui-monospace,SFMono-Regular,Menlo,Consolas,monospace">sold_on</text>
<line x1="40" y1="626" x2="290" y2="626" stroke="#e4e8ee"/>
<text x="50" y="641" font-size="13" fill="#1f2933" font-family="ui-monospace,SFMono-Regular,Menlo,Consolas,monospace">grade_tier</text>
<line x1="40" y1="648" x2="290" y2="648" stroke="#e4e8ee"/>
<text x="50" y="663" font-size="13" fill="#1f2933" font-family="ui-monospace,SFMono-Regular,Menlo,Consolas,monospace">price_cents</text>
<line x1="40" y1="670" x2="290" y2="670" stroke="#e4e8ee"/>
<text x="50" y="685" font-size="13" fill="#1f2933" font-family="ui-monospace,SFMono-Regular,Menlo,Consolas,monospace">title</text>
<rect x="372" y="92" width="246" height="140" rx="7" fill="#ffffff" stroke="#2a78d6" stroke-width="1.8"/>
<path d="M372,122 L372,99 A7,7 0 0 1 379,92 L611,92 A7,7 0 0 1 618,99 L618,122 Z" fill="#eaf2fc"/>
<text x="382" y="113" font-size="15" font-weight="700" fill="#2a78d6" font-family="ui-monospace,SFMono-Regular,Menlo,Consolas,monospace">sets</text>
<text x="382" y="137" font-size="13" fill="#1f2933" font-family="ui-monospace,SFMono-Regular,Menlo,Consolas,monospace">id</text>
<text x="608" y="137" font-size="11" text-anchor="end" font-weight="700" fill="#2a78d6" font-family="ui-monospace,SFMono-Regular,Menlo,Consolas,monospace">PK</text>
<line x1="372" y1="144" x2="618" y2="144" stroke="#e4e8ee"/>
<text x="382" y="159" font-size="13" fill="#1f2933" font-family="ui-monospace,SFMono-Regular,Menlo,Consolas,monospace">slug</text>
<text x="608" y="159" font-size="11" text-anchor="end" font-weight="700" fill="#2a78d6" font-family="ui-monospace,SFMono-Regular,Menlo,Consolas,monospace">UK</text>
<line x1="372" y1="166" x2="618" y2="166" stroke="#e4e8ee"/>
<text x="382" y="181" font-size="13" fill="#1f2933" font-family="ui-monospace,SFMono-Regular,Menlo,Consolas,monospace">name</text>
<line x1="372" y1="188" x2="618" y2="188" stroke="#e4e8ee"/>
<text x="382" y="203" font-size="13" fill="#1f2933" font-family="ui-monospace,SFMono-Regular,Menlo,Consolas,monospace">discovered_at</text>
<line x1="372" y1="210" x2="618" y2="210" stroke="#e4e8ee"/>
<text x="382" y="225" font-size="13" fill="#1f2933" font-family="ui-monospace,SFMono-Regular,Menlo,Consolas,monospace">last_walked_at</text>
<rect x="372" y="288" width="246" height="250" rx="7" fill="#ffffff" stroke="#2a78d6" stroke-width="1.8"/>
<path d="M372,318 L372,295 A7,7 0 0 1 379,288 L611,288 A7,7 0 0 1 618,295 L618,318 Z" fill="#eaf2fc"/>
<text x="382" y="309" font-size="15" font-weight="700" fill="#2a78d6" font-family="ui-monospace,SFMono-Regular,Menlo,Consolas,monospace">cards</text>
<text x="382" y="333" font-size="13" fill="#1f2933" font-family="ui-monospace,SFMono-Regular,Menlo,Consolas,monospace">id</text>
<text x="608" y="333" font-size="11" text-anchor="end" font-weight="700" fill="#2a78d6" font-family="ui-monospace,SFMono-Regular,Menlo,Consolas,monospace">PK</text>
<line x1="372" y1="340" x2="618" y2="340" stroke="#e4e8ee"/>
<text x="382" y="355" font-size="13" fill="#1f2933" font-family="ui-monospace,SFMono-Regular,Menlo,Consolas,monospace">set_id</text>
<text x="608" y="355" font-size="11" text-anchor="end" font-weight="700" fill="#2a78d6" font-family="ui-monospace,SFMono-Regular,Menlo,Consolas,monospace">FK</text>
<line x1="372" y1="362" x2="618" y2="362" stroke="#e4e8ee"/>
<text x="382" y="377" font-size="13" fill="#1f2933" font-family="ui-monospace,SFMono-Regular,Menlo,Consolas,monospace">url</text>
<line x1="372" y1="384" x2="618" y2="384" stroke="#e4e8ee"/>
<text x="382" y="399" font-size="13" fill="#1f2933" font-family="ui-monospace,SFMono-Regular,Menlo,Consolas,monospace">name</text>
<line x1="372" y1="406" x2="618" y2="406" stroke="#e4e8ee"/>
<text x="382" y="421" font-size="13" fill="#1f2933" font-family="ui-monospace,SFMono-Regular,Menlo,Consolas,monospace">last_visited_at</text>
<line x1="372" y1="428" x2="618" y2="428" stroke="#e4e8ee"/>
<text x="382" y="443" font-size="13" fill="#1f2933" font-family="ui-monospace,SFMono-Regular,Menlo,Consolas,monospace">observed_sales_per_day</text>
<line x1="372" y1="450" x2="618" y2="450" stroke="#e4e8ee"/>
<text x="382" y="465" font-size="13" fill="#1f2933" font-family="ui-monospace,SFMono-Regular,Menlo,Consolas,monospace">any_bucket_at_cap</text>
<line x1="372" y1="472" x2="618" y2="472" stroke="#e4e8ee"/>
<text x="382" y="487" font-size="13" fill="#1f2933" font-family="ui-monospace,SFMono-Regular,Menlo,Consolas,monospace">failure_streak</text>
<line x1="372" y1="494" x2="618" y2="494" stroke="#e4e8ee"/>
<text x="382" y="509" font-size="13" fill="#1f2933" font-family="ui-monospace,SFMono-Regular,Menlo,Consolas,monospace">quarantined_until</text>
<line x1="372" y1="516" x2="618" y2="516" stroke="#e4e8ee"/>
<text x="382" y="531" font-size="13" fill="#1f2933" font-family="ui-monospace,SFMono-Regular,Menlo,Consolas,monospace">delisted_at</text>
<rect x="700" y="92" width="258" height="162" rx="7" fill="#ffffff" stroke="#c98500" stroke-width="1.8"/>
<path d="M700,122 L700,99 A7,7 0 0 1 707,92 L951,92 A7,7 0 0 1 958,99 L958,122 Z" fill="#fdf3e2"/>
<text x="710" y="113" font-size="15" font-weight="700" fill="#c98500" font-family="ui-monospace,SFMono-Regular,Menlo,Consolas,monospace">visits</text>
<text x="710" y="137" font-size="13" fill="#1f2933" font-family="ui-monospace,SFMono-Regular,Menlo,Consolas,monospace">id</text>
<text x="948" y="137" font-size="11" text-anchor="end" font-weight="700" fill="#c98500" font-family="ui-monospace,SFMono-Regular,Menlo,Consolas,monospace">PK</text>
<line x1="700" y1="144" x2="958" y2="144" stroke="#e4e8ee"/>
<text x="710" y="159" font-size="13" fill="#1f2933" font-family="ui-monospace,SFMono-Regular,Menlo,Consolas,monospace">card_id</text>
<line x1="700" y1="166" x2="958" y2="166" stroke="#e4e8ee"/>
<text x="710" y="181" font-size="13" fill="#1f2933" font-family="ui-monospace,SFMono-Regular,Menlo,Consolas,monospace">fetched_at</text>
<line x1="700" y1="188" x2="958" y2="188" stroke="#e4e8ee"/>
<text x="710" y="203" font-size="13" fill="#1f2933" font-family="ui-monospace,SFMono-Regular,Menlo,Consolas,monospace">http_status</text>
<line x1="700" y1="210" x2="958" y2="210" stroke="#e4e8ee"/>
<text x="710" y="225" font-size="13" fill="#1f2933" font-family="ui-monospace,SFMono-Regular,Menlo,Consolas,monospace">outcome</text>
<line x1="700" y1="232" x2="958" y2="232" stroke="#e4e8ee"/>
<text x="710" y="247" font-size="13" fill="#1f2933" font-family="ui-monospace,SFMono-Regular,Menlo,Consolas,monospace">fingerprint_hash</text>
<rect x="700" y="320" width="258" height="140" rx="7" fill="#ffffff" stroke="#c98500" stroke-width="1.8"/>
<path d="M700,350 L700,327 A7,7 0 0 1 707,320 L951,320 A7,7 0 0 1 958,327 L958,350 Z" fill="#fdf3e2"/>
<text x="710" y="341" font-size="15" font-weight="700" fill="#c98500" font-family="ui-monospace,SFMono-Regular,Menlo,Consolas,monospace">fingerprints</text>
<text x="710" y="365" font-size="13" fill="#1f2933" font-family="ui-monospace,SFMono-Regular,Menlo,Consolas,monospace">hash</text>
<text x="948" y="365" font-size="11" text-anchor="end" font-weight="700" fill="#c98500" font-family="ui-monospace,SFMono-Regular,Menlo,Consolas,monospace">PK</text>
<line x1="700" y1="372" x2="958" y2="372" stroke="#e4e8ee"/>
<text x="710" y="387" font-size="13" fill="#1f2933" font-family="ui-monospace,SFMono-Regular,Menlo,Consolas,monospace">names</text>
<line x1="700" y1="394" x2="958" y2="394" stroke="#e4e8ee"/>
<text x="710" y="409" font-size="13" fill="#1f2933" font-family="ui-monospace,SFMono-Regular,Menlo,Consolas,monospace">sample_url</text>
<line x1="700" y1="416" x2="958" y2="416" stroke="#e4e8ee"/>
<text x="710" y="431" font-size="13" fill="#1f2933" font-family="ui-monospace,SFMono-Regular,Menlo,Consolas,monospace">first_seen_at</text>
<line x1="700" y1="438" x2="958" y2="438" stroke="#e4e8ee"/>
<text x="710" y="453" font-size="13" fill="#1f2933" font-family="ui-monospace,SFMono-Regular,Menlo,Consolas,monospace">last_seen_at</text>
<rect x="700" y="508" width="258" height="118" rx="7" fill="#ffffff" stroke="#c98500" stroke-width="1.8"/>
<path d="M700,538 L700,515 A7,7 0 0 1 707,508 L951,508 A7,7 0 0 1 958,515 L958,538 Z" fill="#fdf3e2"/>
<text x="710" y="529" font-size="15" font-weight="700" fill="#c98500" font-family="ui-monospace,SFMono-Regular,Menlo,Consolas,monospace">parse_failures</text>
<text x="710" y="553" font-size="13" fill="#1f2933" font-family="ui-monospace,SFMono-Regular,Menlo,Consolas,monospace">id</text>
<text x="948" y="553" font-size="11" text-anchor="end" font-weight="700" fill="#c98500" font-family="ui-monospace,SFMono-Regular,Menlo,Consolas,monospace">PK</text>
<line x1="700" y1="560" x2="958" y2="560" stroke="#e4e8ee"/>
<text x="710" y="575" font-size="13" fill="#1f2933" font-family="ui-monospace,SFMono-Regular,Menlo,Consolas,monospace">url</text>
<line x1="700" y1="582" x2="958" y2="582" stroke="#e4e8ee"/>
<text x="710" y="597" font-size="13" fill="#1f2933" font-family="ui-monospace,SFMono-Regular,Menlo,Consolas,monospace">reason</text>
<line x1="700" y1="604" x2="958" y2="604" stroke="#e4e8ee"/>
<text x="710" y="619" font-size="13" fill="#1f2933" font-family="ui-monospace,SFMono-Regular,Menlo,Consolas,monospace">fingerprint_hash</text>
<line x1="40" y1="732" x2="78" y2="732" stroke="#5b6b7c" stroke-width="1.6" marker-end="url(#a)"/>
<text x="86" y="736" font-size="12.5" fill="#3d4b5a">foreign key, ON DELETE RESTRICT</text>
<line x1="330" y1="732" x2="368" y2="732" stroke="#5b6b7c" stroke-width="1.6" stroke-dasharray="5 4" marker-end="url(#a)"/>
<text x="376" y="736" font-size="12.5" fill="#3d4b5a">referenced by value, no constraint — the diary outlives its subject</text>
</svg>